<?xml version="1.0" encoding="UTF-8" standalone="no"?>
<svg
   viewBox="0 0 124 124"
   class="PortProjectsWindow__Svg-crkjgj-0 cKtGNR"
   version="1.1"
   id="svg3"
   sodipodi:docname="icon.svg"
   width="124"
   height="124"
   inkscape:version="1.4 (86a8ad7, 2024-10-11)"
   xmlns:inkscape="http://www.inkscape.org/namespaces/inkscape"
   xmlns:sodipodi="http://sodipodi.sourceforge.net/DTD/sodipodi-0.dtd"
   xmlns="http://www.w3.org/2000/svg"
   xmlns:svg="http://www.w3.org/2000/svg">
  <defs
     id="defs3" />
  <sodipodi:namedview
     id="namedview3"
     pagecolor="#ffffff"
     bordercolor="#000000"
     borderopacity="0.25"
     inkscape:showpageshadow="2"
     inkscape:pageopacity="0.0"
     inkscape:pagecheckerboard="0"
     inkscape:deskcolor="#d1d1d1"
     showgrid="false"
     inkscape:zoom="9.1110742"
     inkscape:cx="72.000291"
     inkscape:cy="59.103898"
     inkscape:window-width="2560"
     inkscape:window-height="1491"
     inkscape:window-x="-12"
     inkscape:window-y="1588"
     inkscape:window-maximized="1"
     inkscape:current-layer="svg3" />
  <g
     id="g3"
     transform="translate(-1424.361,-1.703)">
    <path
       d="m 1486.361,1.703 c 34.244,0 62,27.757 62,61.997 0,34.246 -27.756,62.003 -62,62.003 -34.245,0 -62,-27.757 -62,-62.003 0,-34.24 27.755,-61.997 62,-61.997 z"
       fill="#2e3440"
       id="path1" />
    <path
       d="m 1523.308,38.431 -16.352,-6.403 -28.538,27.146 -17.188,-12.778 -6.535,3.21 -0.01,33.512 6.505,3.189 17.171,-12.769 28.611,27.122 16.337,-6.378 z m -60.444,35.101 -0.011,-14.349 8.173,7.125 z m 26.136,-7.226 16.331,-11.926 0.01,23.945 z"
       fill-opacity="0.1"
       id="path2" />
    <path
       d="m 1520.669,35.79 -16.353,-6.403 -28.54,27.147 -17.187,-12.778 -6.536,3.21 -0.01,33.511 6.508,3.19 17.171,-12.769 28.611,27.122 16.337,-6.379 z m -60.443,35.104 -0.011,-14.349 8.17,7.124 z m 26.135,-7.231 16.331,-11.922 v 23.945 z"
       fill="#88c0d0"
       id="path3" />
  </g>
</svg>
